<?xml version="1.0" standalone="no"?><!DOCTYPE svg PUBLIC "-//W3C//DTD SVG 1.1//EN" "http://www.w3.org/Graphics/SVG/1.1/DTD/svg11.dtd"><svg t="1775102587193" class="icon" viewBox="0 0 1138 1024" version="1.1" xmlns="http://www.w3.org/2000/svg" p-id="19499" xmlns:xlink="http://www.w3.org/1999/xlink" width="222.265625" height="200"><path d="M796.672 1024a341.312 341.312 0 1 1 341.312-341.312A341.312 341.312 0 0 1 796.672 1024z m56.896-398.208V512a56.896 56.896 0 1 0-113.792 0v170.688a56.896 56.896 0 0 0 56.896 56.896h170.688a56.896 56.896 0 0 0 0-113.792zM85.568 0h967.104a85.312 85.312 0 1 1 0 170.688H85.568a85.312 85.312 0 0 1 0-170.688z m0 284.416h284.48a85.312 85.312 0 0 1 0 170.688H85.568a85.312 85.312 0 0 1 0-170.688z m0 284.416H256.256a85.312 85.312 0 1 1 0 170.688H85.568a85.312 85.312 0 1 1 0-170.688z m0 284.416h56.896a85.312 85.312 0 1 1 0 170.688h-56.896a85.312 85.312 0 1 1 0-170.688z" fill="#A962FD" p-id="19500"></path></svg>